<svg width="800" height="800" viewBox="0 0 800 800" fill="none" xmlns="http://www.w3.org/2000/svg">
<path d="M539.667 66.6667H260.333C139 66.6667 66.6667 139 66.6667 260.333V539.333C66.6667 661 139 733.333 260.333 733.333H539.333C660.667 733.333 733 661 733 539.667V260.333C733.333 139 661 66.6667 539.667 66.6667ZM383.333 575C383.333 587 371.333 595 360.333 590.333C320 573 267.333 557 230.667 552.333L224.333 551.667C204 549 187.333 530 187.333 509.333V252.667C187.333 227 208 208 233.333 210C275 213.333 336.667 233.333 375.333 255.333C380.667 258.333 383.333 264 383.333 269.667V575ZM612.667 509C612.667 529.667 596 548.667 575.667 551.333L568.667 552C532.333 557 480 572.667 439.667 589.667C428.667 594.333 416.667 586.333 416.667 574.333V269.333C416.667 263.333 419.667 257.667 425 254.667C463.667 233 524 213.667 565 210H566.333C592 210 612.667 230.667 612.667 256.333V509Z" fill="white"/>
</svg>
