<svg width="800" height="800" viewBox="0 0 800 800" fill="none" xmlns="http://www.w3.org/2000/svg">
<path fill-rule="evenodd" clip-rule="evenodd" d="M399.5 69C582.587 69 731 221.156 731 408.884C731 559.02 636.125 686.383 504.486 731.368C487.679 734.716 481.712 724.102 481.712 715.052C481.712 703.847 482.11 667.251 482.11 621.769C482.11 590.078 471.502 569.394 459.601 558.852C533.426 550.432 610.997 521.688 610.997 391.144C610.997 354.016 598.135 323.718 576.852 299.917C580.3 291.331 591.671 256.76 573.604 209.952C573.604 209.952 545.824 200.845 482.541 244.802C456.054 237.277 427.678 233.49 399.5 233.358C371.323 233.49 342.979 237.277 316.526 244.802C253.176 200.845 225.33 209.952 225.33 209.952C207.33 256.76 218.7 291.331 222.114 299.917C200.932 323.718 187.97 354.016 187.97 391.144C187.97 521.357 265.375 550.542 339.001 559.127C329.52 567.614 320.935 582.584 317.951 604.563C299.056 613.248 251.054 628.28 221.484 576.334C221.484 576.334 203.948 543.677 170.666 541.29C170.666 541.29 138.344 540.86 168.411 561.944C168.411 561.944 190.125 572.386 205.208 611.669C205.208 611.669 224.667 672.332 316.89 651.779C317.056 680.188 317.354 706.963 317.354 715.052C317.354 724.036 311.255 734.55 294.713 731.4C162.975 686.482 68 559.054 68 408.884C68 221.156 216.446 69 399.5 69Z" fill="white"/>
</svg>
