<svg width="800" height="800" viewBox="0 0 800 800" fill="none" xmlns="http://www.w3.org/2000/svg">
<g clip-path="url(#clip0_180_2)">
<path d="M411.666 341.667V468.333H593.333C582.479 507.761 558.639 542.374 525.671 566.571C492.703 590.768 452.535 603.133 411.666 601.667C379.2 601.557 347.24 593.611 318.502 578.503C289.765 563.395 265.1 541.573 246.604 514.89C228.108 488.207 216.327 457.452 212.264 425.241C208.2 393.029 211.974 360.313 223.264 329.873C234.554 299.432 253.027 272.168 277.112 250.396C301.197 228.625 330.183 212.99 361.605 204.822C393.028 196.653 425.958 196.192 457.596 203.477C489.235 210.762 518.647 225.579 543.333 246.667L636.666 153.333C596.624 116.938 548.323 90.838 495.936 77.2879C443.549 63.7378 388.651 63.1449 335.983 75.5604C283.316 87.976 234.463 113.027 193.644 148.549C152.825 184.071 121.267 228.996 101.697 279.444C82.1262 329.892 75.1315 384.346 81.3167 438.103C87.5019 491.859 106.681 543.302 137.197 587.987C167.714 632.672 208.65 669.256 256.47 694.579C304.29 719.903 357.556 733.204 411.666 733.333C691.666 733.333 753.333 471.667 726.666 341.667H411.666Z" fill="white"/>
</g>
<defs>
<clipPath id="clip0_180_2">
<rect width="800" height="800" fill="white"/>
</clipPath>
</defs>
</svg>
