<svg width="296" height="288" viewBox="0 0 296 288" fill="none" xmlns="http://www.w3.org/2000/svg">
<path d="M49.1119 73.5794C60.7871 60.9518 73.4962 49.1093 85.8176 37.0862C95.5606 27.5807 106.572 14.609 118.302 7.74157C126.298 3.05978 135.892 0.521561 145.169 0.0754481C161.921 -0.730433 175.898 4.94431 188.159 15.9109C204.875 30.8633 220.499 47.3856 236.658 62.9438L265.751 91.1799C272.727 97.9848 280.798 104.885 286.26 112.918C292.008 121.369 295.493 131.977 295.952 142.107C296.645 157.376 289.77 172.171 279.347 183.265C269.651 193.584 256.572 206.484 245.581 215.362L245.383 215.522C234.289 227.339 222.498 238.536 210.886 249.863C203.113 257.44 195.513 265.471 187.281 272.563C174.459 283.612 160.691 288.958 143.518 287.859C134.907 287.31 124.551 284.231 117.367 279.536C108.243 273.573 100.579 265.27 92.8374 257.719L64.5532 230.111L33.7687 200.163C27.313 193.896 20.5327 187.737 14.5566 181.032C4.36785 169.602 -0.981656 155.421 0.149086 140.186C1.72397 118.968 13.2658 107.761 27.7428 93.566C34.7183 86.7264 41.6576 79.9253 49.1119 73.5794Z" fill="url(#paint0_linear_154_3)"/>
<path d="M81.1733 166.033C78.9159 164.803 76.7386 163.451 74.8845 161.674C71.6309 158.558 69.4581 154.507 69.4804 149.985C69.4938 147.235 70.0754 145.042 71.6888 142.774C76.0545 136.641 81.6079 131.246 86.709 125.699C96.4594 115.108 106.288 104.587 116.194 94.1352L151.206 56.672C157.531 49.8794 163.581 42.7313 170.309 36.3207C165.188 54.5005 159.365 72.4999 153.987 90.6106C151.846 97.8175 149.129 105.092 147.578 112.425C147.101 114.677 146.682 117.041 147.291 119.3C151.679 123.986 203.451 119.784 214.636 122.911C219.641 125.431 223.84 129.118 225.62 134.5C226.594 137.445 226.846 141.64 225.386 144.481C221.382 152.274 207.075 165.618 200.516 172.655L164.299 211.623C152.274 224.507 139.197 240.189 126.633 251.897C131.865 234.493 136.951 217.048 141.891 199.561C144.004 191.967 146.8 184.036 148.18 176.318C148.541 174.296 149.02 171.187 148.026 169.297C147.759 168.784 146.299 168.409 145.713 168.265C140.679 167.025 134.894 167.367 129.735 167.369C117.56 167.376 91.4445 168.819 81.1733 166.033Z" fill="#FEFEFE"/>
<path d="M245.383 215.522C234.289 227.339 222.498 238.536 210.886 249.863C203.113 257.44 195.513 265.471 187.281 272.563C174.459 283.612 160.691 288.958 143.518 287.859C134.907 287.31 124.551 284.231 117.367 279.536C108.243 273.573 100.579 265.27 92.8374 257.719L64.5532 230.111L33.7687 200.163C27.313 193.896 20.5327 187.737 14.5566 181.032C4.36785 169.602 -0.981656 155.421 0.149086 140.186C1.72397 118.969 13.2658 107.761 27.7428 93.566C34.7183 86.7265 41.6576 79.9253 49.1119 73.5795C49.1119 73.7358 49.1142 73.8919 49.1119 74.0483C48.9938 78.7782 42.861 86.8059 40.7105 91.4772C32.0365 110.306 31.9583 135.858 46.5804 151.899C53.9701 160.008 67.0915 166.157 78.1538 166.741C79.3327 166.805 80.1773 166.735 81.1734 166.033C91.4446 168.819 117.56 167.376 129.735 167.369C134.894 167.367 140.679 167.025 145.713 168.266C146.299 168.409 147.759 168.784 148.026 169.297C149.02 171.187 148.541 174.297 148.18 176.318C146.801 184.036 144.004 191.967 141.891 199.561C136.951 217.048 131.865 234.493 126.633 251.898C139.197 240.189 152.274 224.507 164.299 211.623L200.516 172.655C207.075 165.618 221.382 152.274 225.386 144.482C226.846 141.64 226.594 137.445 225.62 134.5C223.84 129.118 219.641 125.431 214.636 122.911C222.382 120.844 233.752 125.763 240.5 129.546C249.989 134.866 256.044 143.433 258.825 153.722C263.385 170.592 257.992 188.293 250.308 203.379C248.723 206.488 245.456 211.211 245.403 214.628C245.398 214.813 245.383 215.001 245.378 215.186C245.376 215.299 245.381 215.41 245.383 215.522Z" fill="url(#paint1_linear_154_3)"/>
<defs>
<linearGradient id="paint0_linear_154_3" x1="35.7373" y1="107.725" x2="294.126" y2="105.335" gradientUnits="userSpaceOnUse">
<stop stop-color="#102B55"/>
<stop offset="1" stop-color="#22699D"/>
</linearGradient>
<linearGradient id="paint1_linear_154_3" x1="257.763" y1="191.487" x2="-1.27398" y2="176.549" gradientUnits="userSpaceOnUse">
<stop stop-color="#102B55"/>
<stop offset="1" stop-color="#22699D"/>
</linearGradient>
</defs>
</svg>
